<?xml version="1.0" encoding="utf-8"?>
<!-- Generator: Adobe Illustrator 27.2.0, SVG Export Plug-In . SVG Version: 6.00 Build 0)  -->
<svg version="1.1" id="Layer_1" xmlns="http://www.w3.org/2000/svg" xmlns:xlink="http://www.w3.org/1999/xlink" x="0px" y="0px"
	 viewBox="0 0 259.51 226.29" style="enable-background:new 0 0 259.51 226.29;" xml:space="preserve">
<style type="text/css">
	.st0{fill:#F26B6C;}
	.st1{fill:#010101;}
	.st2{fill:#FFFFFF;}
</style>
<g>
	<path class="st0" d="M141.25,30.49c0,0-33.88-38.51-60.54-23.8S32.42,75.92,139.3,124.38c54.8-28.16,92.16-52.79,86.1-94.76
		C219.34-12.35,161.82-7.59,141.25,30.49z"/>
	<path class="st1" d="M103.56,45.71l0.2,17.31c0,0,17.78-1.4,26.83,1.36c3.15-6.36,7.73-18.2,8.89-18.2c1.15,0,3.77,6.53,3.77,6.53
		s0.83-12.31,3.71-12.32c2.88-0.01,4.94,12.87,8.12,14.88c3.36,0.42,33.46-1.16,33.46-1.16s12.06-17.63,13.79-17.93
		c1.73-0.29,0.04,14.13,2.09,23.07c2.05,8.94,16.41,84.09,20.2,97.54c3.79,13.44,5.29,33.92,3.86,37.1
		c6.93,2.58,12.98-0.33,17.58-5.82c4.6-5.49,7.46-14.73,3.07-32.89s-8.77-37.76-0.44-49.33c8.33-11.56,14.9-2.97,7.8,4.3
		c-6.28,6.44-5.71,21.21-2.97,31.97c1.69,6.64,10.98,36.32,0.65,50.77c-6.71,9.37-15.79,10.24-26.39,9.37
		c-4.11,9.09-13.96,11.28-13.96,11.28c-0.39,1.5-0.15,3.58-0.92,5.27c-1.2,2.61-3.7,4.22-5.87,0.71c-1.61,4.14-5.37,3-6.74,1.64
		c-2.29,5.19-7.41,5.71-8.95-2.36c0,0-15.43,1.13-22-0.51c-0.99,4.91-3.73,5.2-5.9,3.26c-1.44,1.95-2.8,2.6-5.34,0.16
		c-3.02,1.81-6.93-1.71-7.17-9.06c-4.19-2.58-14.54-13.87-15.13-43.15c-2.41,13.13-8.18,36.15-27.21,40.68
		c-0.49,4.69-1.49,8.51-5.18,5.64c-1.57,6.57-3.01,5.42-4.31,4.56c-3.17,2.39-5.04,1.96-4.49-6.19c-5.12,1.1-17.73,2.51-17.73,2.51
		s-0.2,4.76-0.92,6.06c-0.72,1.3-3.09,3.4-3.68-0.49c-2.23,0.3-4.4,0.45-4.4,0.45s-4.24,4.56-5.56-1.64
		c-2.8,5.06-2.87,5.56-5.32,5.06s-3.48-4.97-2.92-10.23c-5.12,0.38-23.3-2.53-28.26-20.68c-7.93-0.26-24.1-3.97-25.74-23.14
		s18.85-37.82,25.52-49.4c7.09-12.31,4.28-16.46-1.23-23.65c-3.94-7.38,2.71-11.4,7.34-5.79c5.45,6.61,8.14,20.46,1.97,30.57
		C27.53,133.92,12.14,150.7,8,162.39c-4.15,11.7,2.53,24.8,16.52,24.61c0.11-10.96,3.54-22.94,13.45-35.67s36.2-52.17,36.48-52.61
		c12.34-19.65,18.94-36.38,22.2-46.24C99.92,42.53,103.44,44.24,103.56,45.71z"/>
	<path class="st2" d="M160.35,87.98c-0.29-1.79-3.01-1.03-2.72,0.75c0.3,1.85,0.66,3.9,0.05,5.72c-0.44,1.33-1.65,2.8-3.19,2.67
		c-1.47-0.12-2.4-1.68-2.65-3c-0.36-1.96,0.41-4.01,1.01-5.84c0.57-1.73-2.16-2.47-2.72-0.75c-0.87,2.64-1.74,5.58-0.72,8.31
		c0.81,2.18,2.67,4.02,5.09,4.11c2.36,0.09,4.48-1.6,5.47-3.65C161.24,93.69,160.8,90.74,160.35,87.98z"/>
	<path class="st2" d="M195.42,89.04c-0.02-1.82-2.85-1.82-2.82,0c0.03,2.34,0.04,7.33-3.4,7.41c-1.32,0.03-2.29-1.22-2.67-2.37
		c-0.55-1.68-0.18-3.56,0.12-5.25c0.32-1.78-2.41-2.54-2.72-0.75c-0.44,2.47-0.87,5.09,0.16,7.48c0.83,1.91,2.54,3.55,4.7,3.7
		c2.2,0.15,4.19-1.22,5.32-3.03C195.42,94.09,195.44,91.46,195.42,89.04z"/>
	<path class="st2" d="M119.78,92.19c-0.26-1.79-2.99-1.03-2.72,0.75c0.25,1.69-0.03,3.47-0.84,4.98c-0.64,1.18-1.96,2.65-3.47,2.26
		c-1.22-0.31-1.84-1.78-1.92-2.91c-0.13-1.86,0.84-3.67,1.64-5.28c0.81-1.62-1.63-3.05-2.44-1.43c-1.21,2.43-2.44,5.07-1.88,7.85
		c0.43,2.13,2.01,4.16,4.22,4.57c2.37,0.44,4.53-1.04,5.83-2.91C119.81,97.77,120.18,94.9,119.78,92.19z"/>
	<path class="st2" d="M135.94,107.89c0.76-0.26,1.5-0.84,1.62-1.67c0,0,0-0.01,0-0.01c0.03-0.06,0.04-0.14,0.04-0.21
		c-0.03-0.69-0.32-1.37-0.83-1.84c-0.07-0.06-0.15-0.11-0.24-0.14c-0.27-0.18-0.58-0.29-0.9-0.33c-0.28-0.06-0.56-0.04-0.83,0.03
		c-0.14,0.03-0.28,0.06-0.42,0.11c-0.07,0.03-0.15,0.05-0.22,0.08c-0.11,0.03-0.22,0.07-0.32,0.13c-0.04,0.02-0.08,0.04-0.12,0.07
		c-0.63,0.26-1.15,0.8-1.32,1.45c-0.23,0.89,0.29,1.72,1.07,2.13c0.06,0.03,0.12,0.06,0.18,0.08c0.03,0.88,0,1.76-0.09,2.63
		c-0.19,0.8-0.42,1.6-0.7,2.39c-0.3,0.84-0.62,2.26-1.63,2.38c-1.54,0.18-1.29-2.09-1.21-3.08c0.09-1.09-1.6-1.08-1.69,0
		c-0.13,1.51-0.13,3.15,1.09,4.24c0.97,0.88,2.36,0.93,3.36,0.08c0.56-0.48,0.96-1.14,1.27-1.86c0.76,1.86,2.94,3.1,4.94,2.28
		c2.2-0.91,3-3.97,1.56-5.85c-0.65-0.85-2.13-0.01-1.46,0.86c0.77,1.01,0.63,2.65-0.53,3.33c-0.05,0.03-0.1,0.05-0.14,0.07
		c-0.06,0-0.12,0-0.18,0c-0.92-0.06-1.37-0.42-1.86-1.14c-0.08-0.12-0.2-0.43-0.32-0.81c-0.08-0.35-0.12-0.71-0.15-1.07
		c-0.03-0.98,0.08-1.76,0.04-2.64L135.94,107.89z"/>
	<path class="st2" d="M177.14,110.61c-0.87,3.39-5.88,2.5-5.28-1c0.05-0.3-0.01-0.56-0.13-0.78c0.18-1.36,0.15-2.74-0.06-4.05
		c0.38-0.01,0.74-0.06,1.08-0.15c1.75-0.47,2.48-2.46,1.56-3.99c-0.88-1.47-2.99-1.82-4.28-0.7c0,0-0.01,0.01-0.01,0.01
		c-0.2,0.13-0.38,0.28-0.54,0.46c-0.89,0.78-1.36,1.97-0.65,3.12c0.13,0.2,0.28,0.37,0.46,0.52c-0.02,0.13-0.01,0.27,0.02,0.42
		c0.42,1.77,0.4,3.57-0.11,5.33c-0.23,0.79-0.55,1.57-0.99,2.26c-0.21,0.34-0.51,0.84-0.89,1.02c-0.7,0.34-1.25-0.22-1.04-0.95
		c0.4-1.4-1.78-2-2.18-0.6c-0.41,1.44,0.1,2.99,1.52,3.65c1.46,0.68,2.94,0.06,3.92-1.11c0.32-0.38,0.6-0.79,0.85-1.22
		c0.64,1.03,1.66,1.81,2.99,2.12c2.71,0.63,5.26-1.15,5.93-3.76C179.69,109.8,177.51,109.2,177.14,110.61z"/>
	<path class="st0" d="M80.5,121.12c-0.51-0.3-1.14-0.11-1.45,0.38c-1.93,3.07-3.85,6.15-5.78,9.22c-0.3,0.48-0.1,1.17,0.38,1.45
		c0.51,0.3,1.14,0.11,1.45-0.38c1.93-3.07,3.85-6.15,5.78-9.22C81.18,122.09,80.98,121.41,80.5,121.12z"/>
	<path class="st0" d="M96.63,132.69c-0.54-0.32-1.1-0.08-1.45,0.38c-3.08,4.06-5.74,8.42-7.96,13.01c-0.25,0.51-0.14,1.14,0.38,1.45
		c0.46,0.27,1.2,0.14,1.45-0.38c1.99-4.11,4.34-8.04,7.02-11.74c0.18-0.09,0.33-0.22,0.43-0.4c0.17-0.29,0.34-0.58,0.5-0.87
		C97.3,133.65,97.13,132.98,96.63,132.69z"/>
	<path class="st0" d="M114.45,128.56c-0.39-0.29-1.05-0.33-1.39,0.08c-0.21,0.25-0.41,0.5-0.62,0.76c-0.17,0.21-0.28,0.46-0.29,0.71
		c-1.28,2.15-2.57,4.31-3.85,6.46c-0.29,0.49-0.11,1.16,0.38,1.45c0.5,0.29,1.16,0.11,1.45-0.38c1.53-2.57,3.07-5.14,4.6-7.71
		C114.99,129.48,114.87,128.87,114.45,128.56z"/>
	<path class="st0" d="M126.42,133.27c-0.56-0.3-1.09-0.09-1.45,0.38c-1.5,1.97-2.61,4.22-3.28,6.6c-0.15,0.53,0.18,1.18,0.74,1.3
		c0.56,0.13,1.14-0.17,1.3-0.74c0.16-0.56,0.34-1.12,0.55-1.67c0.05-0.14,0.11-0.27,0.16-0.41c-0.04,0.08-0.03,0.07,0.02-0.05
		c0.03-0.07,0.06-0.13,0.09-0.2c0.12-0.27,0.24-0.53,0.38-0.79c0.53-1.05,1.15-2.04,1.86-2.97
		C127.13,134.28,126.88,133.52,126.42,133.27z"/>
	<path class="st0" d="M133.05,134.98c-0.58-0.13-1.13,0.17-1.3,0.74c-1.66,5.32-3.62,10.55-5.88,15.63
		c-0.65,1.45-1.32,2.89-2.01,4.32c-0.23,0.47-0.17,1.04,0.27,1.37c0.45,0.34,0.97,0.26,1.39-0.08c0.21-0.17,0.43-0.35,0.64-0.52
		c0.33-0.27,0.38-0.77,0.22-1.16c2.21-4.69,4.18-9.5,5.89-14.4c0.53-1.52,1.03-3.05,1.51-4.59
		C133.96,135.75,133.6,135.1,133.05,134.98z"/>
	<path class="st0" d="M123.01,168.78c-0.47-0.27-1.2-0.14-1.45,0.38c-1.26,2.59-2.53,5.18-3.79,7.77c-0.25,0.51-0.14,1.15,0.38,1.45
		c0.47,0.27,1.2,0.14,1.45-0.38c1.26-2.59,2.53-5.18,3.79-7.77C123.65,169.72,123.53,169.09,123.01,168.78z"/>
	<path class="st0" d="M117.47,188.95c-0.49-0.26-1.17-0.14-1.45,0.38c-1.06,2.02-2.12,4.04-3.17,6.06
		c-0.26,0.49-0.14,1.17,0.38,1.45c0.49,0.26,1.17,0.14,1.45-0.38c1.06-2.02,2.12-4.04,3.17-6.06
		C118.11,189.9,118,189.22,117.47,188.95z"/>
	<path class="st0" d="M100.76,180.44c-0.47-0.28-1.19-0.13-1.45,0.38l-7.47,14.52c-0.26,0.51-0.13,1.15,0.38,1.45
		c0.5,0.29,1.16,0.12,1.45-0.38c0.27-0.47,0.55-0.93,0.82-1.4c0.08-0.14,0.12-0.3,0.13-0.45c2.17-4.22,4.35-8.45,6.52-12.67
		C101.41,181.38,101.28,180.74,100.76,180.44z"/>
	<path class="st0" d="M107.47,155.39c-0.44-0.33-0.98-0.27-1.39,0.08c-0.28,0.25-0.57,0.5-0.85,0.75c-0.26,0.23-0.34,0.58-0.29,0.91
		c-2.19,3.31-4.19,6.75-6,10.28c-0.47,0.91,0.5,2.02,1.45,1.45l0.4-0.24c0.39-0.23,0.58-0.7,0.5-1.13c1.94-3.71,4.1-7.3,6.46-10.75
		C108.04,156.33,107.87,155.69,107.47,155.39z"/>
	<path class="st0" d="M80.18,174.47c-0.53-0.31-1.12-0.09-1.45,0.38c-2.18,3.15-4.37,6.31-6.55,9.46c-0.3,0.43-0.12,1.07,0.27,1.37
		c0.45,0.34,0.97,0.26,1.39-0.08c0.19-0.16,0.38-0.31,0.57-0.47c0.23-0.19,0.32-0.48,0.3-0.77c1.95-2.81,3.89-5.63,5.84-8.44
		C80.89,175.45,80.65,174.74,80.18,174.47z"/>
	<path class="st0" d="M76.93,151.33c-0.54-0.32-1.1-0.08-1.45,0.38c-3.31,4.38-6.62,8.77-9.93,13.15c-0.31,0.42-0.11,1.08,0.27,1.37
		c0.39,0.29,1.05,0.33,1.39-0.08l0.79-0.97c0.09-0.11,0.16-0.23,0.21-0.35l9.09-12.04C77.66,152.32,77.39,151.59,76.93,151.33z"/>
	<path class="st0" d="M49.9,152.48c-0.46-0.42-1.03-0.37-1.5,0c-2.08,1.67-4.17,3.35-6.25,5.02c-0.43,0.35-0.39,1.14,0,1.5
		c0.46,0.42,1.03,0.37,1.5,0c2.08-1.67,4.17-3.35,6.25-5.02C50.34,153.63,50.29,152.84,49.9,152.48z"/>
	<path class="st0" d="M58,152.5c-0.4-0.4-1.1-0.42-1.5,0l-8.68,9.2c-0.39,0.42-0.41,1.09,0,1.5c0.4,0.4,1.1,0.42,1.5,0
		c2.89-3.07,5.79-6.13,8.68-9.2C58.39,153.58,58.41,152.91,58,152.5z"/>
	<path class="st0" d="M53.46,179.11c-0.41-0.41-1.09-0.41-1.5,0c-2.7,2.69-5.4,5.38-8.1,8.08c-0.19,0.09-0.37,0.24-0.51,0.42
		c-0.15,0.19-0.3,0.39-0.44,0.58c-0.32,0.41-0.1,1.08,0.27,1.37c0.42,0.31,1.01,0.3,1.39-0.08c2.96-2.95,5.93-5.91,8.89-8.86
		C53.86,180.21,53.86,179.52,53.46,179.11z"/>
	<path class="st0" d="M63.23,193.55c-0.51-0.27-1.14-0.13-1.45,0.38c-0.85,1.41-1.7,2.81-2.55,4.22c-0.29,0.47-0.12,1.18,0.38,1.45
		c0.55,0.29,1.1,0.1,1.45-0.38c0.18-0.25,0.36-0.5,0.54-0.75c0.08-0.11,0.13-0.25,0.14-0.39c0.62-1.03,1.24-2.05,1.86-3.08
		C63.9,194.53,63.73,193.82,63.23,193.55z"/>
	<path class="st0" d="M152.95,153.18c-0.03-0.02-0.06-0.03-0.09-0.04c-0.2-4.26-0.4-8.52-0.59-12.77c-0.06-1.39-0.13-2.77-0.19-4.16
		c-0.03-0.55-0.47-1.09-1.06-1.06c-0.55,0.02-1.09,0.47-1.06,1.06c0.23,4.86,0.45,9.73,0.68,14.59l0.19,4.16
		c0.05,1.04,1.41,1.45,1.97,0.53c0.18-0.29,0.35-0.58,0.53-0.86C153.63,154.14,153.44,153.46,152.95,153.18z"/>
	<path class="st0" d="M173.3,144c-0.05-0.55-0.45-1.09-1.06-1.06c-0.53,0.02-1.12,0.47-1.06,1.06c0.52,5.28,1.05,10.57,1.57,15.85
		c0.05,0.55,0.45,1.09,1.06,1.06c0.53-0.02,1.12-0.47,1.06-1.06C174.35,154.57,173.82,149.29,173.3,144z"/>
	<path class="st0" d="M188.4,136.92c-0.41-1.61-0.87-3.21-1.38-4.78c-0.18-0.54-0.73-0.9-1.3-0.74c-0.53,0.15-0.92,0.76-0.74,1.3
		c1.76,5.45,2.91,11.1,3.36,16.77c0.13,1.63,0.21,3.27,0.23,4.91c0.01,0.55,0.48,1.09,1.06,1.06c0.57-0.03,1.07-0.47,1.06-1.06
		C190.6,148.5,189.83,142.62,188.4,136.92z"/>
	<path class="st0" d="M195.87,139.96c-0.06-0.55-0.44-1.09-1.06-1.06c-0.52,0.02-1.12,0.47-1.06,1.06
		c0.37,3.46,0.74,6.93,1.12,10.39c0.06,0.55,0.44,1.09,1.06,1.06c0.52-0.02,1.12-0.47,1.06-1.06
		C196.62,146.88,196.24,143.42,195.87,139.96z"/>
	<path class="st0" d="M208.96,147.44c-0.72-4.42-1.43-8.83-2.15-13.25c-0.09-0.57-0.79-0.88-1.3-0.74c-0.6,0.17-0.83,0.74-0.74,1.3
		c0.72,4.42,1.43,8.83,2.15,13.25c0.09,0.57,0.79,0.88,1.3,0.74C208.82,148.58,209.05,148.01,208.96,147.44z"/>
	<path class="st0" d="M163.05,166.59c-0.6,0.03-1.03,0.47-1.06,1.06c-0.21,3.85-0.42,7.69-0.63,11.54
		c-0.03,0.55,0.51,1.08,1.06,1.06c0.6-0.03,1.03-0.47,1.06-1.06c0.21-3.85,0.42-7.69,0.63-11.54
		C164.14,167.09,163.6,166.56,163.05,166.59z"/>
	<path class="st0" d="M151.14,183.52c-0.04-0.55-0.46-1.09-1.06-1.06c-0.54,0.02-1.1,0.47-1.06,1.06c0.19,2.79,0.38,5.58,0.57,8.37
		c0.04,0.55,0.46,1.09,1.06,1.06c0.54-0.02,1.1-0.47,1.06-1.06C151.52,189.09,151.33,186.3,151.14,183.52z"/>
	<path class="st0" d="M167.3,203.13c-0.66-2.02-1.32-4.05-1.98-6.07c-0.17-0.53-0.74-0.92-1.3-0.74c-0.53,0.17-0.92,0.74-0.74,1.3
		c0.66,2.02,1.32,4.05,1.98,6.07c0.17,0.53,0.74,0.92,1.3,0.74C167.09,204.26,167.48,203.7,167.3,203.13z"/>
	<path class="st0" d="M177.04,179c-0.6,0.03-1.03,0.47-1.06,1.06c-0.19,4.33-0.39,8.65-0.58,12.98c-0.02,0.55,0.5,1.08,1.06,1.06
		c0.6-0.03,1.03-0.47,1.06-1.06c0.19-4.33,0.39-8.65,0.58-12.98C178.12,179.5,177.59,178.97,177.04,179z"/>
	<path class="st0" d="M191.37,169.67c-0.01-0.82-1.28-0.82-1.27,0c0.06,4.14,0.13,8.27,0.19,12.41c0.01,0.82,1.28,0.82,1.27,0
		C191.5,177.94,191.43,173.8,191.37,169.67z"/>
	<path class="st0" d="M217.14,185.2c-0.3-0.08-0.73,0.1-0.78,0.44c-0.2,1.44-0.41,2.88-0.61,4.32c-0.05,0.34,0.08,0.68,0.44,0.78
		c0.3,0.08,0.73-0.1,0.78-0.44c0.2-1.44,0.41-2.88,0.61-4.32C217.63,185.64,217.5,185.3,217.14,185.2z"/>
	<path class="st0" d="M188.45,205.12c-0.77-1.54-1.54-3.08-2.31-4.62c-0.15-0.31-0.59-0.39-0.87-0.23
		c-0.31,0.18-0.38,0.56-0.23,0.87c0.77,1.54,1.54,3.08,2.31,4.62c0.15,0.31,0.59,0.39,0.87,0.23
		C188.53,205.8,188.6,205.42,188.45,205.12z"/>
	<path class="st0" d="M199.31,196.46c-0.3-0.08-0.73,0.1-0.78,0.44c-0.42,2.59-0.83,5.18-1.25,7.77c-0.05,0.34,0.09,0.68,0.44,0.78
		c0.3,0.08,0.73-0.1,0.78-0.44l1.25-7.77C199.8,196.9,199.66,196.55,199.31,196.46z"/>
	<path class="st0" d="M207.41,174.57c-0.04-0.55-0.46-1.09-1.06-1.06c-0.54,0.02-1.1,0.47-1.06,1.06c0.31,4.52,0.61,9.04,0.92,13.55
		c0.04,0.55,0.46,1.09,1.06,1.06c0.54-0.02,1.1-0.47,1.06-1.06C208.02,183.61,207.71,179.09,207.41,174.57z"/>
</g>
</svg>
