<?xml version="1.0" encoding="utf-8"?>
<!-- Generator: Adobe Illustrator 27.2.0, SVG Export Plug-In . SVG Version: 6.00 Build 0)  -->
<svg version="1.1" id="Layer_1" xmlns="http://www.w3.org/2000/svg" xmlns:xlink="http://www.w3.org/1999/xlink" x="0px" y="0px"
	 viewBox="0 0 190.52 220.98" style="enable-background:new 0 0 190.52 220.98;" xml:space="preserve">
<style type="text/css">
	.st0{fill:#E67FB3;stroke:#010101;stroke-width:7;stroke-linecap:round;stroke-linejoin:round;stroke-miterlimit:10;}
	.st1{fill:#010101;}
	.st2{fill:#EE3424;stroke:#010101;stroke-width:7;stroke-linecap:round;stroke-linejoin:round;stroke-miterlimit:10;}
</style>
<g>
	<path class="st0" d="M90.99,217.46c-3.03,0.2-4.37-1.66-5.66-3.26c-5.59-6.94-11.5-13.68-16.49-21.04
		c-13.91-20.53-25.88-42.23-37.92-63.89c-7.51-13.5-14.5-27.23-19.84-41.75c-1.61-4.38-3.12-8.8-4.7-13.19
		C2.54,63.68,2.72,52.87,5.83,42.2c1.73-5.94,4.2-11.72,6.85-17.33c4.51-9.56,12.4-15.44,22.45-18c8.19-2.09,16.54-3.82,25.13-3.25
		c8.68,0.57,16.5,3.86,23.95,8c5.05,2.81,8.8,7.18,11.49,12.26c3.44,6.5,6.53,13.18,9.76,19.78c0.36,0.73,0.69,1.47,1.3,2.78
		c1.04-1.58,1.8-2.68,2.52-3.81c3.81-5.96,7.3-12.13,12.49-17.1c11.01-10.57,23.66-13.9,38.25-8.9c2.54,0.87,5,1.98,7.46,3.04
		c10.75,4.63,16.19,13.17,18.1,24.41c2.03,11.99,2.08,23.89-0.83,35.77c-1.78,7.27-3.25,14.62-4.96,21.92
		c-2.9,12.39-8.29,23.82-14.72,34.64c-4.89,8.25-10.72,15.99-16.54,23.64c-11.52,15.15-25.12,28.43-38.77,41.6
		c-4.78,4.62-9.94,8.84-14.98,13.18C93.5,215.91,92.01,216.76,90.99,217.46z"/>
	<path class="st1" d="M20.26,14.57c0.31-0.27,0.63-0.55,0.96-0.83c0.67-0.56,1.33-1.06,1.97-1.5c1.79,3.11,3.57,6.22,5.36,9.33
		c0.91-1.45,1.54-2.31,2.01-3.25c1.74-3.48,2.47-5.33,4.83-9.86c0.44-0.84,0.8-1.51,1.02-1.92c0.46-0.11,0.92-0.23,1.38-0.34
		c0.5-0.12,0.99-0.24,1.48-0.35c-1.04,3.18-2.54,6.93-4.71,10.93c-1.94,3.57-3.99,6.56-5.88,9c-0.98-1.02-2.16-1.96-2.96-3.15
		c-1.45-2.14-1.7-3.54-3.44-5.82C21.51,15.79,20.77,15.04,20.26,14.57z"/>
	<path class="st1" d="M59.38,63.28c-2.69,0.31-5.54-7.64-11.14-23.56c-0.26-0.75-0.71-2.9-0.33-5.44c0.49-3.26,3.46-4.81,6.33-3.17
		c1.75,1,3.16,2.71,4.45,4.33c1.01,1.27,1.6,2.89,2.57,4.73c0.86-1.47,1.39-2.59,2.12-3.57c0.92-1.24,1.85-2.53,3.04-3.48
		c1.75-1.39,3.88-1.81,5.98-0.79c2.23,1.08,2.83,3.34,2.53,5.41c-0.42,2.9-0.92,6.06-2.42,8.46c-1.45,2.33-4.6,9.13-11.31,15.83
		C60.39,62.86,59.99,63.2,59.38,63.28z M60.61,58.16c3.45-4.33,6.98-8.52,9.32-13.53c0,0,1.4-2.48,1.87-6.04
		c0.3-2.27-0.05-2.95-0.46-3.27c-0.94-0.74-2.64,0.07-2.85,0.17c-0.93,0.46-1.58,1.14-2.37,2.53c-1.32,2.34-2.44,4.78-3.71,7.15
		c-0.66,1.24-1.31,2.65-3.18,1.81c-0.01-1.75-0.22-9-4.97-12.2c-0.67-0.45-1.83-1.23-2.58-0.81c-1.82,1,0.24,8.08,1.35,11.21
		C54.16,48.33,56.29,53.04,60.61,58.16z"/>
	<path class="st1" d="M146.23,81.79c-0.83-0.01-1.44-1.06-1.84-1.78c-4.35-7.73-6.55-13.9-7-14.99c-0.98-2.42-1.15-5.2-1.47-7.84
		c-0.24-2,0.7-3.66,2.52-4.53c1.89-0.9,3.6-0.11,5.09,1.13c0.75,0.63,1.38,1.4,2.24,2.28c0.83-0.79,1.55-1.62,2.42-2.27
		c3.59-2.68,7.58-0.96,8.01,3.51c0.13,1.38,0.05,2.91-0.44,4.18c-2.34,6.04-3.85,9.31-5.88,14.05
		C148.2,79.43,147.48,81.81,146.23,81.79z M152.06,55.54c-1.19-0.32-3.27,3.4-3.99,4.7c-1.83,3.28-2.28,5.53-2.86,5.45
		c-0.52-0.07-0.51-1.88-1.71-6.16c-0.32-1.12-0.61-2.05-1.45-2.85c-0.69-0.66-2.08-1.57-2.79-1.16c-1.74,1,1.3,9.35,1.73,10.53
		c1.57,4.31,3.48,7.64,4.96,9.9c3.26-4.59,7.37-11.53,7.09-17.35C152.99,57.84,152.89,55.76,152.06,55.54z"/>
	<path class="st1" d="M137.11,125.91c1.24-0.81,2.35-1.68,3.58-2.32c2.98-1.54,5.79-0.07,6.22,3.24c0.34,2.63-0.2,5.19-1.77,7.25
		c-2.03,2.67-4.26,5.26-6.75,7.49c-2.26,2.03-4.99,3.55-7.48,5.28c-4.4-5.59-4.73-22.39-0.67-27.22
		C134.78,119.05,135.1,123.39,137.11,125.91z M131.93,141.85c2.77-0.97,7.06-3.05,9.46-7.4c1.79-3.24,2.5-7.67,1.45-8.23
		c-0.7-0.37-2.26,0.95-2.91,1.62c-0.4,0.42-1.03,1.1-1.99,2.66c-0.71,1.15-1.44,2.15-3.17,1.23c-0.11-1.01-0.36-2.5-0.97-4.2
		c-0.38-1.06-1.44-4.03-2.23-3.92c-1.19,0.16-1.11,7.21-1.1,7.69C130.54,135.74,131.27,139.37,131.93,141.85z"/>
	<path class="st1" d="M43.69,99.56c0.81-0.91,1.5-2.03,2.49-2.73c3.28-2.31,7.03-0.47,7.2,3.55c0.09,2.06-0.3,3.7-0.64,4.54
		c-2.32,5.72-8.16,14.13-9.03,15.38c-3.1-4.33-5.86-8.36-8.38-12.13c0,0-1.64-2.9-2.96-7.38c-0.58-1.97-0.25-3.99,1.77-5.2
		c2.13-1.27,4.1-0.54,5.88,0.78C41.15,97.2,42.15,98.2,43.69,99.56z M36.05,99.61c-1.38,1.43,1.08,5.75,1.88,7.16
		c1.05,1.84,2.93,4.57,6.27,7.24c1.04-1.56,5.72-8.64,5.9-12.11c0.04-0.79-0.08-2.65-0.69-2.83c-0.08-0.02-0.37-0.08-0.72-0.04
		c0,0-0.3,0.03-0.6,0.14c-1.06,0.39-1.8,2.15-1.8,2.15c-1.23,2.95-1.02,4.97-1.92,5.22c-0.16,0.04-0.41,0.05-0.79-0.19
		c-0.05-0.3-1-5.94-4.81-7C38.45,99.26,36.82,98.81,36.05,99.61z"/>
	<path class="st1" d="M103.14,70.07c0.39-0.36,0.79-0.73,1.2-1.09c2.45-2.16,3.87-2.45,6.05-1.23c2.26,1.26,3.52,3.8,2.81,6.48
		c-0.57,2.16-1.28,4.4-2.45,6.28c-2.15,3.44-4.68,6.63-6.93,9.76c-0.93-1.23-6.04-8.09-8.58-13.69c-0.37-0.81-0.99-2.82-0.95-5.34
		c0.05-3.37,2.44-4.73,5.53-3.29C100.96,68.48,101.96,69.3,103.14,70.07z M96.84,72.3c-0.39,0.61-0.31,1.68,2.45,5.92
		c1.07,1.63,2.6,3.85,4.66,6.37c2.68-2.96,4.95-6.17,6.06-10.07c0.29-1.02,0.5-1.74,0.18-2.49c-0.43-1.02-1.71-1.97-2.58-1.67
		c-1.62,0.56-0.67,5.09-3.03,6.22c-0.23,0.11-0.35,0.17-0.54,0.17c-1.62,0.02-1.78-4.26-4.22-5.14
		C98.77,71.24,97.34,71.52,96.84,72.3z"/>
	<path class="st1" d="M45.56,155.37c-0.38-0.67-0.77-1.34-1.15-2.02c0.98-0.43,2.82-1.05,5.06-0.75c4.99,0.66,7.44,5.27,7.7,5.78
		c0.93-0.98,1.8-2.01,2.79-2.91c2.22-2.02,4.52-2.45,6.57-1.32c2.4,1.32,2.6,3.51,2.25,5.86c-0.03,0.18-0.2,1.55-0.74,2.85
		c-1.03,2.5-4.56,7.6-9.85,13.81c-0.5-0.82-1.01-1.64-1.51-2.45c0.84-1.12,2.19-2.93,4.79-6.41c0,0,1.48-1.98,4.07-7.36
		c0.22-0.45,0.66-1.4,0.32-2.35c-0.2-0.55-0.7-1.22-1.37-1.38c-0.51-0.12-1.52-0.04-4.4,3.45c-2.67,3.23-3.01,4.62-3.83,4.53
		c-1.24-0.14-0.99-3.44-3.97-6.84c-0.88-1.01-1.56-1.46-2.08-1.74C48.38,155.11,46.51,155.23,45.56,155.37z"/>
	<path class="st1" d="M109.77,193.41c1.23-3.1,4-5.12,6.89-5.07c2.46,0.04,4.16,1.54,4.65,2.02c-0.72,0.71-1.44,1.42-2.15,2.13
		c-0.57-0.23-1.38-0.46-2.32-0.36c-3.04,0.3-4.5,3.6-4.58,3.79c0.03,1.07,0.05,2.15,0.08,3.22c-0.69,0.67-1.38,1.33-2.07,2
		c-1.29-2.62-2.58-4.63-3.55-6.02c-1.64-2.35-2.48-3.09-3.48-3.12c-1.02-0.04-2,0.66-2.43,1.3c-2.09,3.11,4.87,10.97,5.44,11.61
		c-0.65,0.58-1.29,1.15-1.94,1.73c-3.64-4-5.23-7.67-5.96-9.82c-0.62-1.81-0.79-3.47-0.53-5.38c0.27-1.96,1.22-3.3,2.5-3.87
		c1.55-0.7,3.21,0.09,4.66,0.78c1.65,0.77,2.68,1.84,3.17,2.41C109.01,191.74,109.5,192.73,109.77,193.41z"/>
	<path class="st1" d="M168.45,43.29c-2.09-3.51-4.3-7.78-6.27-12.8c-2.12-5.38-3.45-10.34-4.32-14.55c0.5,0.15,1.02,0.31,1.54,0.48
		c0.36,0.12,0.72,0.24,1.06,0.36c0.1,0.42,0.25,1.07,0.45,1.85c1.09,4.15,2.54,6.79,4.41,11.49c0.99,2.47,2.13,4.88,3.39,7.74
		c1.31-1.96,2.64-4.06,3.96-6.31c1.28-2.18,2.43-4.3,3.47-6.34c0.3,0.28,0.61,0.57,0.92,0.89c0.35,0.35,0.67,0.7,0.97,1.04
		c-0.92,2.74-2.35,6.16-4.66,9.78C171.74,39.5,170.01,41.61,168.45,43.29z"/>
	<path class="st1" d="M177.93,96.92c1.13-0.64,2.25-1.29,3.38-1.93c-0.26,1.18-0.52,2.37-0.79,3.57c-0.23,1.01-0.46,2.02-0.69,3.03
		c-1.3,1.51-2.09,1.7-2.58,1.56c-1.54-0.42-1.13-4.34-3.82-6.72c-0.94-0.83-1.51-0.82-1.81-0.75c-0.68,0.16-1.04,0.91-1.24,1.33
		c-0.76,1.64-0.42,3.33-0.29,3.96c0.8,3.81,2.14,6.8,2.33,7.22c0.8,1.76,1.89,4.03,3.32,6.64c-0.16,0.4-0.31,0.81-0.48,1.22
		c-0.35,0.88-0.7,1.73-1.06,2.57c-0.19-0.29-0.46-0.7-0.78-1.2c-2.62-4.18-3.83-7.91-4.55-9.56c-1.47-3.39-2.45-6.9-1.69-10.68
		c0.41-2.07,1.25-3.84,3.4-4.47c2.3-0.67,4.13,0.38,5.63,2.06C176.76,95.4,177.26,96.08,177.93,96.92z"/>
	<path class="st2" d="M96.2,172.85c-4.65-4.56-8.11-9.37-10.87-14.62c-5.58-10.64-11.09-21.32-16.36-32.11
		c-3.88-7.94-5-16.38-3.68-25.18c1.41-9.37,8.55-14.71,17.85-12.92c7.02,1.35,12.17,5.32,15.02,11.85
		c1.68,3.86,2.74,7.99,4.26,12.52c0.68-1.18,1.32-2.14,1.8-3.16c2.52-5.3,5.89-9.99,10.29-13.88c4.05-3.58,8.62-5.47,14.04-3.53
		c4.49,1.6,7.12,4.88,8.16,9.52c0.93,4.11,0.51,8.2-0.37,12.19c-1.71,7.77-4.5,15.14-8.94,21.85c-5.85,8.85-11.36,17.94-18.58,25.78
		c-2.96,3.22-6.2,6.18-9.37,9.21C98.55,171.22,97.47,171.89,96.2,172.85z"/>
</g>
</svg>
